<?xml version="1.0" standalone="no"?>
<!DOCTYPE svg PUBLIC "-//W3C//DTD SVG 20010904//EN"
 "http://www.w3.org/TR/2001/REC-SVG-20010904/DTD/svg10.dtd">
<svg version="1.0" xmlns="http://www.w3.org/2000/svg"
 width="1024.000000pt" height="1024.000000pt" viewBox="0 0 1024.000000 1024.000000"
 preserveAspectRatio="xMidYMid meet">

<g transform="translate(0.000000,1024.000000) scale(0.100000,-0.100000)"
fill="#000000" stroke="none">
<path d="M5322 9309 c-80 -40 -115 -143 -76 -226 31 -64 63 -79 295 -133 234
-55 909 -226 1139 -289 174 -47 180 -52 180 -155 -1 -372 -82 -974 -191 -1411
-113 -454 -347 -840 -699 -1153 -122 -109 -306 -242 -334 -242 -12 0 -32 9
-44 20 l-22 21 0 689 c0 809 -14 730 124 730 98 0 129 9 174 53 81 78 59 218
-42 266 -39 19 -60 21 -253 21 -200 0 -212 -1 -253 -23 -30 -16 -51 -37 -67
-67 l-23 -43 0 -1020 0 -1020 25 -43 c28 -47 90 -84 144 -84 40 0 161 52 296
128 592 330 1038 855 1239 1456 85 256 186 760 230 1146 33 290 45 633 27 803
-9 85 -25 117 -78 153 -59 40 -1625 444 -1720 444 -16 0 -47 -10 -71 -21z"/>
<path d="M5027 4080 c-86 -22 -145 -73 -186 -160 l-26 -55 -3 -445 c-4 -462 0
-515 38 -590 26 -49 76 -95 135 -122 72 -32 218 -32 290 1 63 28 100 63 130
121 37 72 45 147 45 397 l0 233 -150 0 -150 0 0 -95 0 -95 51 0 51 0 -3 -159
c-4 -143 -6 -162 -25 -188 -41 -55 -137 -55 -178 0 -20 28 -21 41 -24 425 -2
218 0 417 3 441 10 64 49 101 109 101 86 0 115 -52 116 -202 l0 -78 101 0 102
0 -6 123 c-3 79 -11 140 -23 172 -22 62 -103 145 -159 163 -53 17 -190 24
-238 12z"/>
<path d="M5572 3498 l3 -573 24 -59 c30 -76 78 -128 144 -157 43 -19 69 -23
152 -24 90 0 106 3 157 28 72 36 113 84 138 166 19 60 20 94 20 627 l0 564
-100 0 -100 0 0 -555 c0 -408 -3 -561 -12 -580 -32 -70 -157 -74 -193 -6 -13
26 -15 104 -15 586 l0 555 -111 0 -110 0 3 -572z"/>
<path d="M6515 4048 c-2 -13 -50 -311 -105 -663 -55 -352 -103 -650 -105 -662
-5 -23 -4 -23 94 -23 l99 0 12 88 c7 48 15 103 19 122 l7 35 131 3 130 3 17
-105 c9 -58 16 -114 16 -125 0 -20 6 -21 110 -21 61 0 110 3 110 8 -1 4 -49
311 -108 682 l-108 675 -157 3 c-156 2 -157 2 -162 -20z m200 -549 c24 -167
47 -319 50 -336 l6 -33 -100 0 c-55 0 -102 3 -104 8 -3 4 17 151 44 327 26
176 48 326 49 334 1 45 14 -27 55 -300z"/>
<path d="M7160 3385 l0 -685 110 0 110 0 0 280 0 280 50 0 c64 0 113 -20 137
-56 15 -24 19 -58 24 -249 3 -121 9 -228 13 -237 7 -16 23 -18 118 -18 85 0
107 3 101 13 -4 6 -11 116 -14 242 -8 277 -17 315 -90 378 l-48 41 28 17 c76
46 101 124 101 314 0 177 -13 229 -75 290 -66 66 -107 75 -357 75 l-208 0 0
-685z m397 462 c27 -27 28 -30 31 -162 5 -194 -12 -221 -145 -233 l-63 -5 0
218 0 217 75 -4 c66 -3 78 -7 102 -31z"/>
<path d="M7950 3384 l0 -686 228 4 c214 3 230 5 275 27 60 29 111 89 134 155
16 46 18 95 18 506 0 451 0 456 -23 512 -29 73 -92 131 -163 152 -40 12 -101
16 -261 16 l-208 0 0 -686z m397 476 c18 -11 36 -32 40 -47 5 -15 8 -212 8
-438 0 -383 -1 -412 -19 -437 -22 -34 -76 -50 -154 -46 l-57 3 -3 480 c-1 264
0 486 3 493 8 21 144 16 182 -8z"/>
<path d="M4505 2181 c-48 -22 -69 -44 -90 -94 -22 -54 -22 -670 0 -724 20 -48
41 -71 87 -94 66 -34 161 -17 210 38 45 50 48 75 48 420 0 297 -2 332 -19 368
-22 48 -44 69 -94 90 -48 20 -93 19 -142 -4z m125 -66 c59 -31 61 -42 58 -406
l-3 -331 -33 -29 c-45 -40 -99 -40 -144 0 l-33 29 -3 328 c-3 358 -1 373 52
405 38 23 67 24 106 4z"/>
<path d="M5000 1726 l0 -466 98 0 c111 0 161 17 205 69 34 41 47 89 47 181 0
93 -12 136 -49 180 l-29 35 29 32 c39 45 52 102 47 210 -3 83 -7 97 -34 135
-47 68 -82 82 -206 87 l-108 3 0 -466z m217 374 c53 -32 65 -69 61 -177 l-3
-95 -37 -34 c-35 -31 -43 -34 -103 -34 l-65 0 0 180 0 180 58 0 c39 0 67 -6
89 -20z m0 -430 c49 -29 63 -66 63 -162 0 -130 -42 -178 -155 -178 l-55 0 0
180 0 180 58 0 c39 0 67 -6 89 -20z"/>
<path d="M6370 1725 l0 -465 150 0 150 0 0 35 0 35 -115 0 -115 0 0 180 0 180
80 0 80 0 0 35 0 35 -80 0 -80 0 0 180 0 180 110 0 110 0 0 35 0 35 -145 0
-145 0 0 -465z"/>
<path d="M3650 1720 l0 -460 35 0 35 0 2 383 3 382 63 -335 c91 -481 77 -430
122 -430 31 0 39 4 43 23 3 12 36 186 74 386 l68 364 3 -387 2 -386 35 0 35 0
0 460 0 460 -53 0 -53 0 -74 -392 c-40 -216 -76 -396 -80 -401 -3 -4 -40 173
-81 393 l-74 400 -52 0 -53 0 0 -460z"/>
<path d="M5570 1720 l0 -460 35 0 35 0 0 460 0 460 -35 0 -35 0 0 -460z"/>
<path d="M5880 1720 l0 -460 145 0 145 0 0 35 0 35 -110 0 -110 0 0 425 0 425
-35 0 -35 0 0 -460z"/>
</g>
</svg>
